
        <svg xmlns="http://www.w3.org/2000/svg" xmlns:xlink="http://www.w3.org/1999/xlink" version="1.1" width="3203.3898305084745" height="979.3978918653069" viewBox="0 0 3203.3898305084745 979.3978918653069">
			
			<g transform="scale(10.169491525423728) translate(10, 10)">
				<defs id="SvgjsDefs12538"/><g id="SvgjsG12539" featureKey="symbolFeature-0" transform="matrix(0.932835803191611,0,0,0.932835803191611,-9.141791049202096,-8.194029638299332)" fill="#fff"><g xmlns="http://www.w3.org/2000/svg"><path d="M63.5,12c-2.7,0-5,1.7-5.9,4.1h-19c-1.2,0-2.2,1-2.2,2.2c0,1.2,1,2.2,2.2,2.2h19c0.9,2.4,3.2,4.1,5.9,4.1   c3.5,0,6.3-2.8,6.3-6.3S67,12,63.5,12z M63.5,22.6c-2.4,0-4.3-1.9-4.3-4.3s1.9-4.3,4.3-4.3c2.4,0,4.3,1.9,4.3,4.3   S65.9,22.6,63.5,22.6z"/><path d="M83.9,33.1c-2.7,0-5,1.7-5.9,4.1H18.3c-1.2,0-2.2,1-2.2,2.2c0,1.2,1,2.2,2.2,2.2H78c0.9,2.4,3.2,4.1,5.9,4.1   c3.5,0,6.3-2.8,6.3-6.3C90.2,35.9,87.4,33.1,83.9,33.1z M83.9,43.7c-2.4,0-4.3-1.9-4.3-4.3s1.9-4.3,4.3-4.3s4.3,1.9,4.3,4.3   S86.3,43.7,83.9,43.7z"/><path d="M72.8,26.7H33.9c-0.9-2.4-3.2-4.1-5.9-4.1c-3.5,0-6.3,2.8-6.3,6.3s2.8,6.3,6.3,6.3c2.7,0,5-1.7,5.9-4.1h38.9   c1.2,0,2.2-1,2.2-2.2C75,27.7,74.1,26.7,72.8,26.7z M28,33.2c-2.4,0-4.3-1.9-4.3-4.3s1.9-4.3,4.3-4.3s4.3,1.9,4.3,4.3   S30.4,33.2,28,33.2z"/><path d="M83.5,47.8H22c-0.9-2.4-3.2-4.1-5.9-4.1c-3.5,0-6.3,2.8-6.3,6.3c0,3.5,2.8,6.3,6.3,6.3c2.7,0,5-1.7,5.9-4.1h61.5   c1.2,0,2.2-1,2.2-2.2C85.7,48.8,84.7,47.8,83.5,47.8z M16.1,54.3c-2.4,0-4.3-1.9-4.3-4.3c0-2.4,1.9-4.3,4.3-4.3s4.3,1.9,4.3,4.3   C20.4,52.4,18.5,54.3,16.1,54.3z"/><path d="M72.8,68.9H32.6c-0.9-2.4-3.2-4.1-5.9-4.1c-3.5,0-6.3,2.8-6.3,6.3c0,3.5,2.8,6.3,6.3,6.3c2.7,0,5-1.7,5.9-4.1h40.2   c1.2,0,2.2-1,2.2-2.2C75,69.9,74.1,68.9,72.8,68.9z M26.7,75.4c-2.4,0-4.3-1.9-4.3-4.3c0-2.4,1.9-4.3,4.3-4.3s4.3,1.9,4.3,4.3   C31,73.5,29.1,75.4,26.7,75.4z"/><path d="M83.9,54.2c-2.7,0-5,1.7-5.9,4.1H18.3c-1.2,0-2.2,1-2.2,2.2c0,1.2,1,2.2,2.2,2.2H78c0.9,2.4,3.2,4.1,5.9,4.1   c3.5,0,6.3-2.8,6.3-6.3C90.2,57.1,87.4,54.2,83.9,54.2z M83.9,64.8c-2.4,0-4.3-1.9-4.3-4.3s1.9-4.3,4.3-4.3s4.3,1.9,4.3,4.3   S86.3,64.8,83.9,64.8z"/><path d="M62.4,75.3c-2.7,0-5,1.7-5.9,4.1H38.7c-1.2,0-2.2,1-2.2,2.2c0,1.2,1,2.2,2.2,2.2h17.9c0.9,2.4,3.2,4.1,5.9,4.1   c3.5,0,6.3-2.8,6.3-6.3S65.9,75.3,62.4,75.3z M62.4,85.9c-2.4,0-4.3-1.9-4.3-4.3s1.9-4.3,4.3-4.3c2.4,0,4.3,1.9,4.3,4.3   S64.8,85.9,62.4,85.9z"/></g></g><g id="SvgjsG12540" featureKey="9wBXHa-0" transform="matrix(3.800836261112336,0,0,3.800836261112336,89.75484733707374,-20.448499519755558)" fill="#fff"><path d="M7.5 5.720000000000001 c2.0266 0 3.62 0.62666 4.78 1.88 s1.74 2.98 1.74 5.18 c0 2.28 -0.58334 4.0534 -1.75 5.32 s-2.73 1.9 -4.69 1.9 l-6.2 0 l0 -14.28 l6.12 0 z M7.3 17.36 c1.1333 0 2.0134 -0.37334 2.64 -1.12 s0.94 -1.8067 0.94 -3.18 c0 -1.5733 -0.33666 -2.75 -1.01 -3.53 s-1.71 -1.17 -3.11 -1.17 l-2.24 0 l0 9 l2.78 0 z M21.12 5.380000000000001 c1.7467 0 3.1366 0.40002 4.17 1.2 s1.55 1.9333 1.55 3.4 l-3.04 0 c-0.04 -0.72 -0.28334 -1.26 -0.73 -1.62 s-1.1367 -0.54 -2.07 -0.54 c-0.65334 0 -1.18 0.14334 -1.58 0.43 s-0.6 0.68332 -0.6 1.19 c0 0.41334 0.12334 0.71334 0.37 0.9 s0.59666 0.35332 1.05 0.49998 s1.2467 0.36 2.38 0.64 c1.1867 0.29334 2.1 0.61334 2.74 0.96 s1.1267 0.79 1.46 1.33 s0.5 1.2033 0.5 1.99 c0 0.90666 -0.24 1.7133 -0.72 2.42 s-1.18 1.2433 -2.1 1.61 s-1.96 0.55 -3.12 0.55 c-1.7733 0 -3.23 -0.44334 -4.37 -1.33 s-1.71 -2.1034 -1.71 -3.65 l0 -0.1 l3.04 0 c0 0.84 0.28666 1.49 0.86 1.95 s1.3333 0.69 2.28 0.69 c0.84 0 1.5167 -0.15 2.03 -0.45 s0.77 -0.74334 0.77 -1.33 c0 -0.38666 -0.14 -0.71332 -0.42 -0.97998 s-0.65334 -0.48332 -1.12 -0.64998 s-1.2533 -0.37666 -2.36 -0.63 c-1.28 -0.32 -2.2134 -0.66 -2.8 -1.02 s-1.0333 -0.79666 -1.34 -1.31 s-0.46 -1.13 -0.46 -1.85 c0 -0.89334 0.25666 -1.6733 0.77 -2.34 s1.1833 -1.16 2.01 -1.48 s1.68 -0.48 2.56 -0.48 z M36.3 5.720000000000001 l5.34 14.28 l-3.26 0 l-1.08 -3.18 l-5.34 0 l-1.12 3.18 l-3.18 0 l5.42 -14.28 l3.22 0 z M34.64 9.24 l-1.86 5.24 l3.7 0 l-1.8 -5.24 l-0.04 0 z M47.8 5.380000000000001 c1.7467 0 3.1366 0.40002 4.17 1.2 s1.55 1.9333 1.55 3.4 l-3.04 0 c-0.04 -0.72 -0.28334 -1.26 -0.73 -1.62 s-1.1367 -0.54 -2.07 -0.54 c-0.65334 0 -1.18 0.14334 -1.58 0.43 s-0.6 0.68332 -0.6 1.19 c0 0.41334 0.12334 0.71334 0.37 0.9 s0.59666 0.35332 1.05 0.49998 s1.2467 0.36 2.38 0.64 c1.1867 0.29334 2.1 0.61334 2.74 0.96 s1.1267 0.79 1.46 1.33 s0.5 1.2033 0.5 1.99 c0 0.90666 -0.24 1.7133 -0.72 2.42 s-1.18 1.2433 -2.1 1.61 s-1.96 0.55 -3.12 0.55 c-1.7733 0 -3.23 -0.44334 -4.37 -1.33 s-1.71 -2.1034 -1.71 -3.65 l0 -0.1 l3.04 0 c0 0.84 0.28666 1.49 0.86 1.95 s1.3333 0.69 2.28 0.69 c0.84 0 1.5167 -0.15 2.03 -0.45 s0.77 -0.74334 0.77 -1.33 c0 -0.38666 -0.14 -0.71332 -0.42 -0.97998 s-0.65334 -0.48332 -1.12 -0.64998 s-1.2533 -0.37666 -2.36 -0.63 c-1.28 -0.32 -2.2134 -0.66 -2.8 -1.02 s-1.0333 -0.79666 -1.34 -1.31 s-0.46 -1.13 -0.46 -1.85 c0 -0.89334 0.25666 -1.6733 0.77 -2.34 s1.1833 -1.16 2.01 -1.48 s1.68 -0.48 2.56 -0.48 z"/></g><g id="SvgjsG12541" featureKey="RGJA4D-0" transform="matrix(0.6418052731942846,0,0,0.6418052731942846,93.82787093701981,63.34600284063175)" fill="#fff"><path d="M9.4043 12.5488 c1.5918 0.43945 2.6563 1.4844 2.6563 3.4961 c0 2.3828 -1.4453 3.9551 -4.4238 3.9551 l-5.8105 0 l0 -14.111 l4.5703 0 c3.0469 0 4.6484 1.4648 4.6484 3.8672 c0 1.2402 -0.53711 2.2559 -1.6406 2.793 z M6.4258 8.32 l-1.7773 0 l0 3.3203 l1.9043 0 c1.25 0 1.7969 -0.74219 1.7969 -1.6992 c0 -0.9375 -0.61523 -1.6211 -1.9238 -1.6211 z M7.0898 17.4902 c1.582 0 2.1289 -0.84961 2.1289 -1.7676 c0 -0.9375 -0.53711 -1.8262 -2.1875 -1.8262 l-2.3828 0 l0 3.5938 l2.4414 0 z M37.968640625 5.888999999999999 l-4.6387 7.3535 l0 6.7578 l-2.9395 0 l0 -6.6895 l-4.668 -7.4219 l3.2422 0 l2.8809 4.8047 l2.8906 -4.8047 l3.2324 0 z M78.76 5.888999999999999 l0 2.5781 l-3.3496 0 l0 11.533 l-2.9004 0 l0 -11.533 l-3.3691 0 l0 -2.5781 l9.6191 0 z M102.588234375 5.888999999999999 l2.9297 0 l0 14.111 l-2.9297 0 l0 -5.8008 l-5.9668 0 l0 5.8008 l-2.9297 0 l0 -14.111 l2.9297 0 l0 5.7617 l5.9668 0 l0 -5.7617 z M130.06859375 8.467 l-5.2344 0 l0 3.2031 l4.6387 0 l0 2.5488 l-4.6387 0 l0 3.1934 l5.2344 0 l0 2.5879 l-8.1836 0 l0 -14.111 l8.1836 0 l0 2.5781 z M169.960965625 20.19531 c-4.1504 0 -7.2168 -2.8223 -7.2168 -7.2559 s3.0664 -7.2461 7.2168 -7.2461 c3.1445 0 5.6641 1.6113 6.6699 4.2871 l-2.7344 0.99609 c-0.625 -1.6406 -2.1191 -2.5879 -3.9355 -2.5879 c-2.4316 0 -4.2969 1.6992 -4.2969 4.5508 s1.8652 4.5605 4.2969 4.5605 c1.8164 0 3.3105 -0.95703 3.9355 -2.5977 l2.7344 0.99609 c-1.0059 2.6758 -3.5254 4.2969 -6.6699 4.2969 z M194.677775 17.4121 l4.4238 0 l0 2.5879 l-7.3535 0 l0 -14.111 l2.9297 0 l0 11.523 z M219.2773625 20.19531 c-3.0957 0 -5.5176 -1.582 -5.5176 -5.1367 l0 -9.1699 l2.9297 0 l0 8.7695 c0 2.1484 1.1426 2.9492 2.5879 2.9492 c1.4551 0 2.6074 -0.81055 2.6074 -2.9492 l0 -8.7695 l2.9297 0 l0 9.1699 c0 3.5547 -2.4316 5.1367 -5.5371 5.1367 z M248.4668 12.5488 c1.5918 0.43945 2.6563 1.4844 2.6563 3.4961 c0 2.3828 -1.4453 3.9551 -4.4238 3.9551 l-5.8105 0 l0 -14.111 l4.5703 0 c3.0469 0 4.6484 1.4648 4.6484 3.8672 c0 1.2402 -0.53711 2.2559 -1.6406 2.793 z M245.4883 8.32 l-1.7773 0 l0 3.3203 l1.9043 0 c1.25 0 1.7969 -0.74219 1.7969 -1.6992 c0 -0.9375 -0.61523 -1.6211 -1.9238 -1.6211 z M246.1523 17.4902 c1.582 0 2.1289 -0.84961 2.1289 -1.7676 c0 -0.9375 -0.53711 -1.8262 -2.1875 -1.8262 l-2.3828 0 l0 3.5938 l2.4414 0 z"/></g>
			</g>
		</svg>
	